<svg
    xmlns="http://www.w3.org/2000/svg"
    fillRule="evenodd"
    strokeLinecap="round"
    strokeLinejoin="round"
    strokeMiterlimit="1.5"
    clipRule="evenodd"
    viewBox="0 0 512 512"
>
    <path
    fill="none"
    strokeWidth="39.88"
    d="M230.734 158.116a8.645 8.645 0 0116.532 0l22.607 73.939a7.276 7.276 0 007.087 5.149l77.306-1.347a8.642 8.642 0 015.109 15.722l-63.334 44.349a7.28 7.28 0 00-2.708 8.332l25.171 73.106a8.643 8.643 0 01-13.374 9.717l-61.75-46.53a7.277 7.277 0 00-8.76 0l-61.75 46.53a8.644 8.644 0 01-13.374-9.717l25.171-73.106a7.28 7.28 0 00-2.708-8.332l-63.334-44.349a8.642 8.642 0 015.109-15.722l77.306 1.347a7.276 7.276 0 007.087-5.149l22.607-73.939z"
    transform="matrix(.62692 0 0 .62692 205.942 133.708)"
    ></path>
    <path
    fill="none"
    strokeWidth="26.5"
    d="M492 105.704C492 76.064 474.448 52 452.829 52H82.171C60.552 52 43 76.064 43 105.704v299.592C43 434.936 60.552 459 82.171 459h370.658C474.448 459 492 434.936 492 405.296V105.704z"
    transform="matrix(1.07795 0 0 .78624 -32.352 55.115)"
    ></path>
    <path
    fill="none"
    strokeWidth="27.65"
    d="M282 172h411.439"
    transform="matrix(.7972 0 0 1 -137.811 0)"
    ></path>
    <path
    fill="none"
    strokeWidth="27.55"
    d="M282 172h143"
    transform="matrix(.8042 0 0 1 -139.783 89.5)"
    ></path>
    <path
    fill="none"
    strokeWidth="13.19"
    d="M282 172h58.316"
    transform="matrix(2.48647 0 0 1 -614.185 179)"
    ></path>
</svg>