<svg
    xmlns="http://www.w3.org/2000/svg"
    fillRule="evenodd"
    strokeLinecap="round"
    strokeLinejoin="round"
    strokeMiterlimit="1.5"
    clipRule="evenodd"
    viewBox="0 0 512 512"
>
    <path
    fill="none"
    strokeWidth="35.32"
    d="M12.967-164.358C-81.513-120.684-142-26.086-142 78c0 147.361 119.639 267 267 267S392 225.361 392 78c0-82.734-38.354-160.795-103.845-211.351L125 78 12.967-164.358z"
    transform="scale(.70787) rotate(26.989 -441.329 707.245)"
    ></path>
    <path
    fill="none"
    strokeWidth="35.32"
    d="M336.765 240.618a267.003 267.003 0 00-49.147-374.383L125 78l211.765 162.618z"
    transform="scale(.70787) rotate(26.989 -441.329 707.245)"
    ></path>
    <path
    fill="none"
    strokeWidth="35.32"
    d="M269.094-146.78a267.004 267.004 0 00-256.205-17.543L125 78l144.094-224.78z"
    transform="matrix(.63077 .32124 -.32124 .63077 247.21 114.96)"
    ></path>
</svg>