<svg
    xmlns="http://www.w3.org/2000/svg"
    fillRule="evenodd"
    strokeLinecap="round"
    strokeLinejoin="round"
    strokeMiterlimit="1.5"
    clipRule="evenodd"
    viewBox="0 0 512 512"
>
    <path
    fill="none"
    strokeWidth="15.03"
    d="M457 259.195v-86.368H47v239.538C47 432.033 62.888 448 82.458 448h184.389M82.458 96C62.888 96 47 111.967 47 131.635v41.192h410v-41.192C457 111.967 441.112 96 421.542 96"
    transform="matrix(1.0007 0 0 .99574 -37.033 -30.09)"
    ></path>
    <path
    fill="none"
    strokeWidth="15.03"
    d="M329.099 96h-95.576"
    transform="matrix(1.0007 0 0 .99574 -66.364 -30.09)"
    ></path>
    <path
    fill="none"
    strokeWidth="34.66"
    d="M18.434 40v47"
    transform="matrix(.82794 0 0 1.16384 92.809 -8.404)"
    ></path>
    <path
    fill="none"
    strokeWidth="34.66"
    d="M18.434 40v47"
    transform="matrix(.82794 0 0 1.16384 306.952 -8.404)"
    ></path>
    <g>
    <path
        d="M114 206.438c0-6.313-6.049-11.438-13.5-11.438h-27c-7.451 0-13.5 5.125-13.5 11.438v22.875c0 6.312 6.049 11.437 13.5 11.437h27c7.451 0 13.5-5.125 13.5-11.437v-22.875z"
        transform="translate(-12.286 -7.214) matrix(.92593 0 0 1.0929 33.444 95.314)"
    ></path>
    <path
        d="M114 206.438c0-6.313-6.049-11.438-13.5-11.438h-27c-7.451 0-13.5 5.125-13.5 11.438v22.875c0 6.312 6.049 11.437 13.5 11.437h27c7.451 0 13.5-5.125 13.5-11.437v-22.875z"
        transform="translate(-12.286 -7.214) matrix(.92593 0 0 1.0929 146.873 95.314)"
    ></path>
    <path
        d="M114 206.438c0-6.313-6.049-11.438-13.5-11.438h-27c-7.451 0-13.5 5.125-13.5 11.438v22.875c0 6.312 6.049 11.437 13.5 11.437h27c7.451 0 13.5-5.125 13.5-11.437v-22.875z"
        transform="translate(-12.286 -7.214) matrix(.92593 0 0 1.0929 146.873 -11.115)"
    ></path>
    <path
        d="M114 206.438c0-6.313-6.049-11.438-13.5-11.438h-27c-7.451 0-13.5 5.125-13.5 11.438v22.875c0 6.312 6.049 11.437 13.5 11.437h27c7.451 0 13.5-5.125 13.5-11.437v-22.875z"
        transform="translate(-12.286 -7.214) matrix(.92593 0 0 1.0929 33.444 -11.115)"
    ></path>
    <path
        d="M114 206.438c0-6.313-6.049-11.438-13.5-11.438h-27c-7.451 0-13.5 5.125-13.5 11.438v22.875c0 6.312 6.049 11.437 13.5 11.437h27c7.451 0 13.5-5.125 13.5-11.437v-22.875z"
        transform="translate(-12.286 -7.214) matrix(.92593 0 0 1.0929 260.302 -11.115)"
    ></path>
    </g>
    <g transform="translate(-43 -11)">
    <circle
        cx="427"
        cy="395"
        r="117"
        fill="none"
        strokeWidth="15"
    ></circle>
    </g>
    <path
    fill="none"
    strokeWidth="15"
    d="M384 301.214V384l40 40"
    ></path>
</svg>