<svg
    xmlns="http://www.w3.org/2000/svg"
    fillRule="evenodd"
    strokeLinecap="round"
    strokeLinejoin="round"
    strokeMiterlimit="1.5"
    clipRule="evenodd"
    viewBox="0 0 512 512"
>
    <path
    fill="none"
    strokeWidth="26.13"
    d="M106 128c36.021 1.566 68.5 256 103 256 37 0 67-255 104-256 34.487-.932 66 257 103 256 22.992-.621 39-82 52-128"
    transform="translate(-56.928 -42.095) scale(1.1256) matrix(1.16439 0 0 .29835 -56.172 281.302)"
    ></path>
    <path
    fill="none"
    strokeWidth="27.22"
    d="M261.026 111.62C303.993 121.798 336 160.44 336 206.5c0 53.812-43.688 97.5-97.5 97.5S141 260.312 141 206.5c0-28.482 12.24-54.129 31.741-71.962"
    transform="translate(-56.928 -42.095) scale(1.1256) scale(.8159) rotate(-14.343 785.029 -693.378)"
    ></path>
    <path
    fill="none"
    strokeWidth="22"
    d="M139.75 87H91.323"
    transform="translate(-56.928 -42.095) scale(1.1256) matrix(.626 .80462 -.78927 .61405 275.63 148.058)"
    ></path>
    <path
    fill="none"
    strokeWidth="17.7"
    d="M64 170.296v44.851"
    transform="translate(-56.928 -42.095) scale(1.1256) matrix(.626 .80462 -1.14687 .89226 336.527 100.68)"
    ></path>
    <path
    fill="none"
    strokeWidth="36.58"
    d="M125.486 119.823L251.68 35.182c10.923-7.912 12.764-22.443 4.109-32.428l-31.137-39.125c-8.655-9.985-24.549-11.669-35.472-3.756 0 0-159.82 105.747-162.326 107.163-8.78 4.958-13.777 17.222-13.777 27.133l.935 194.521c0 12.74 11.314 23.084 25.25 23.084l61.156-.258c13.936 0 25.25-10.344 25.25-23.084l-.182-168.609z"
    transform="translate(-56.928 -42.095) scale(1.1256) matrix(.5377 .21591 -.23617 .58815 240.114 117.152)"
    ></path>
</svg>